<svg xmlns="http://www.w3.org/2000/svg" viewBox="0 0 128 128" role="img" aria-label="Bull horn favicon">
  <defs>
    <linearGradient id="bg" x1="0" y1="0" x2="1" y2="1">
      <stop offset="0%" stop-color="#0f4d3d" />
      <stop offset="100%" stop-color="#072b22" />
    </linearGradient>
    <linearGradient id="horn" x1="0" y1="0" x2="1" y2="1">
      <stop offset="0%" stop-color="#f3e7ce" />
      <stop offset="100%" stop-color="#d8c39a" />
    </linearGradient>
  </defs>
  <rect width="128" height="128" rx="26" fill="url(#bg)" />
  <path d="M22 72c3-18 15-30 34-33-5 10-4 20 2 30 4 7 4 16-2 25-22-6-34-17-34-22z" fill="url(#horn)" />
  <path d="M106 72c-3-18-15-30-34-33 5 10 4 20-2 30-4 7-4 16 2 25 22-6 34-17 34-22z" fill="url(#horn)" />
  <ellipse cx="64" cy="80" rx="16" ry="18" fill="#111827" />
  <path d="M58 80h12" stroke="#f8fafc" stroke-width="2.5" stroke-linecap="round" />
</svg>
